<?xml version="1.0" encoding="utf-8"?>
<!-- Generator: Adobe Illustrator 18.1.0, SVG Export Plug-In . SVG Version: 6.00 Build 0)  -->
<svg version="1.1" id="Capa_1" xmlns="http://www.w3.org/2000/svg" xmlns:xlink="http://www.w3.org/1999/xlink" x="0px" y="0px"
	 viewBox="-657 245.2 512 512" enable-background="new -657 245.2 512 512" xml:space="preserve">
<g>
	<path fill="#999999" d="M-401,245.2c-141.4,0-256,114.6-256,256s114.6,256,256,256s256-114.6,256-256S-259.6,245.2-401,245.2z
		 M-401,725.2c-123.5,0-224-100.5-224-224s100.5-224,224-224s224,100.5,224,224S-277.5,725.2-401,725.2z"/>
	<path fill="#999999" d="M-430.1,526.8h42.2c-6.7,16.7-23.1,28.5-42.2,28.5c-25.1,0-45.5-20.4-45.5-45.5s20.4-45.5,45.5-45.5
		c11.2,0,21.9,4.1,30.2,11.5l22.6-25.4c-14.6-13-33.3-20.1-52.8-20.1c-43.8,0-79.5,35.7-79.5,79.5s35.7,79.5,79.5,79.5
		s79.5-35.7,79.5-79.5v-17h-79.5V526.8z"/>
	<polygon fill="#999999" points="-286.3,468.6 -307.3,468.6 -307.3,495.8 -334.4,495.8 -334.4,516.8 -307.3,516.8 -307.3,543.9 
		-286.3,543.9 -286.3,516.8 -259.1,516.8 -259.1,495.8 -286.3,495.8 	"/>
</g>
</svg>
