<?xml version="1.0" encoding="utf-8"?>
<!-- Generator: Adobe Illustrator 18.1.0, SVG Export Plug-In . SVG Version: 6.00 Build 0)  -->
<svg version="1.1" id="Capa_1" xmlns="http://www.w3.org/2000/svg" xmlns:xlink="http://www.w3.org/1999/xlink" x="0px" y="0px"
	 viewBox="-705 245.3 512 512" enable-background="new -705 245.3 512 512" xml:space="preserve">
<g>
	<path fill="#999999" d="M-332.1,404.2c-9.9,5.8-20.7,10.1-32.3,12.3c-9.3-9.9-22.5-16.1-37.1-16.1c-28.1,0-50.9,22.8-50.9,50.9
		c0,4,0.4,7.9,1.3,11.6c-42.3-2.1-79.8-22.4-104.8-53.2c-4.4,7.5-6.9,16.3-6.9,25.6c0,17.6,9,33.2,22.6,42.3
		c-8.3-0.3-16.2-2.6-23-6.4c0,0.2,0,0.4,0,0.6c0,24.7,17.5,45.2,40.8,49.9c-4.3,1.2-8.8,1.8-13.4,1.8c-3.3,0-6.5-0.3-9.6-0.9
		c6.5,20.2,25.3,34.9,47.5,35.3c-17.4,13.6-39.3,21.8-63.2,21.8c-4.1,0-8.2-0.2-12.1-0.7c22.5,14.4,49.2,22.8,78,22.8
		c93.6,0,144.7-77.5,144.7-144.7c0-2.2-0.1-4.4-0.2-6.6c9.9-7.1,18.6-16.1,25.3-26.3c-9.1,4-18.9,6.8-29.2,8
		C-343.9,426-335.9,416-332.1,404.2z"/>
	<path fill="#999999" d="M-449,245.3c-141.4,0-256,114.6-256,256s114.6,256,256,256s256-114.6,256-256S-307.6,245.3-449,245.3z
		 M-449,725.3c-123.5,0-224-100.5-224-224s100.5-224,224-224s224,100.5,224,224S-325.5,725.3-449,725.3z"/>
</g>
</svg>
