<?xml version="1.0" encoding="utf-8"?>
<!-- Generator: Adobe Illustrator 18.1.0, SVG Export Plug-In . SVG Version: 6.00 Build 0)  -->
<svg version="1.1" baseProfile="tiny" id="Layer_1" xmlns="http://www.w3.org/2000/svg" xmlns:xlink="http://www.w3.org/1999/xlink"
	 x="0px" y="0px" viewBox="0 0 425.6 425.6" xml:space="preserve">
<path fill="#ffffff" d="M408.3,17.3L408.3,17.3c-22.4-22.4-58.7-22.4-81,0L212.8,131.8L98.3,17.3c-22.4-22.4-58.7-22.4-81,0l0,0
	c-22.4,22.4-22.4,58.7,0,81l114.5,114.5L17.3,327.3c-22.4,22.4-22.4,58.7,0,81l0,0c22.4,22.4,58.7,22.4,81,0l114.5-114.5
	l114.5,114.5c22.4,22.4,58.7,22.4,81,0l0,0c22.4-22.4,22.4-58.7,0-81L293.8,212.8L408.3,98.3C430.7,75.9,430.7,39.7,408.3,17.3z"/>
</svg>
